<svg width="48" height="38" viewBox="0 0 48 38" fill="none" xmlns="http://www.w3.org/2000/svg">
<path d="M48 28.0627H44.6333C44.2603 19.049 37.2359 11.5894 27.9735 9.91099C29.0303 8.91637 29.652 7.54878 29.652 5.9947C29.652 2.88653 27.1654 0.399994 24.0573 0.399994C20.9491 0.399994 18.4626 2.88653 18.4626 5.9947C18.4626 7.54878 19.0842 8.97854 20.141 9.97315C10.8786 11.6516 3.85417 19.1112 3.48119 28.1248H3.55122e-05C4.23843e-05 29.3681 4.23843e-05 28.6843 4.23843e-05 29.3681C4.23843e-05 30.0519 1.52588e-05 29.5764 3.55122e-05 30.6114H48C48 30.047 48 30.2602 48 29.5764C48 28.8926 48 28.6353 48 28.0627ZM24.0573 2.88653C25.7978 2.88653 27.1654 4.25412 27.1654 5.9947C27.1654 7.73527 25.7978 9.10286 24.0573 9.10286C22.3167 9.10286 20.9491 7.73527 20.9491 5.9947C20.9491 4.25412 22.3167 2.88653 24.0573 2.88653ZM24.0573 12.0867C33.7547 12.0867 41.7116 19.2355 42.1468 28.1248H5.96772C6.40287 19.1733 14.3598 12.0867 24.0573 12.0867Z" fill="#F25E3D"/>
<path d="M48 34.6114H0C0 34.9964 4.39531e-05 35.1709 4.39531e-05 35.8547C4.39531e-05 36.5385 0 36.4081 3.85396e-05 37.0979H48C48 36.4081 48 36.6214 48 35.9376C48 35.2538 48 35.467 48 34.6114Z" fill="#F25E3D"/>
</svg>
